<svg width="30" height="28" viewBox="0 0 30 28" fill="none" xmlns="http://www.w3.org/2000/svg">
<path opacity="0.6" d="M26.875 19H3.125C2.43464 19 1.875 19.5596 1.875 20.25V25.875C1.875 26.5654 2.43464 27.125 3.125 27.125H26.875C27.5654 27.125 28.125 26.5654 28.125 25.875V20.25C28.125 19.5596 27.5654 19 26.875 19Z" fill="white"/>
<path d="M20 5.875C19.6545 5.875 19.375 5.59516 19.375 5.25V2.125H10.625V5.25C10.625 5.59516 10.3455 5.875 10 5.875C9.65454 5.875 9.375 5.59516 9.375 5.25V1.5C9.375 1.15484 9.65454 0.875 10 0.875H20C20.3455 0.875 20.625 1.15484 20.625 1.5V5.25C20.625 5.59516 20.3455 5.875 20 5.875Z" fill="white"/>
<path fill-rule="evenodd" clip-rule="evenodd" d="M1.875 4.625H28.125C28.8154 4.625 29.375 5.18464 29.375 5.875V19C29.375 19.6904 28.8154 20.25 28.125 20.25H1.875C1.18464 20.25 0.625 19.6904 0.625 19V5.875C0.625 5.18464 1.18464 4.625 1.875 4.625ZM14.0986 15.2637C13.5463 15.2637 13.0986 15.7114 13.0986 16.2637C13.0986 16.816 13.5463 17.2637 14.0986 17.2637H16.0986C16.6509 17.2637 17.0986 16.816 17.0986 16.2637C17.0986 15.7114 16.6509 15.2637 16.0986 15.2637H14.0986Z" fill="white"/>
</svg>
